<svg height="512" viewBox="0 0 48 48" width="512" xmlns="http://www.w3.org/2000/svg">
    <g id="_28-angry" data-name="28-angry">
        <circle cx="24" cy="24" fill="#cf4054" r="23"/>
        <path d="m24 4c12.15 0 22 8.507 22 19h.975a23 23 0 0 0 -45.95 0h.975c0-10.493 9.85-19 22-19z" fill="#f45269"/>
        <path d="m46 23c0 10.493-9.85 19-22 19s-22-8.507-22-19h-.975c-.014.332-.025.665-.025 1a23 23 0 0 0 46 0c0-.335-.011-.668-.025-1z"
              fill="#ae2d4c"/>
        <g fill="#f6fafd">
            <ellipse cx="36.5" cy="8.5" rx=".825" ry="1.148" transform="matrix(.707 -.707 .707 .707 4.687 28.31)"/>
            <ellipse cx="30.246" cy="4" rx=".413" ry=".574" transform="matrix(.707 -.707 .707 .707 6.037 22.567)"/>
            <ellipse cx="33.5" cy="6.5" rx="1.65" ry="2.297" transform="matrix(.707 -.707 .707 .707 5.222 25.602)"/>
        </g>
        <ellipse cx="24" cy="25" fill="#ae2d4c" rx="10" ry="2"/>
        <path d="m39.447 16.9-.894-1.79-4.934 2.467-2.927 1.464-.136.068.015.03a.982.982 0 0 0 -.4.55 5.335 5.335 0 0 0 -.171 1.311c0 2.243 1.317 4 3 4s3-1.757 3-4a5.011 5.011 0 0 0 -.483-2.14z"
              fill="#141e21"/>
        <path d="m17.432 19.135.015-.03-.136-.068-2.927-1.464-4.937-2.468-.894 1.795 3.93 1.965a5.011 5.011 0 0 0 -.483 2.135c0 2.243 1.317 4 3 4s3-1.757 3-4a5.335 5.335 0 0 0 -.168-1.315.982.982 0 0 0 -.4-.55z"
              fill="#141e21"/>
        <path d="m16.86 19.93a4.07 4.07 0 0 1 .14 1.07c0 1.66-.9 3-2 3s-2-1.34-2-3a3.516 3.516 0 0 1 .94-2.53z"
              fill="#273941"/>
        <path d="m35 21c0 1.66-.9 3-2 3s-2-1.34-2-3a4.07 4.07 0 0 1 .14-1.07l2.92-1.46a3.516 3.516 0 0 1 .94 2.53z"
              fill="#273941"/>
        <path d="m31 36h-2c0-1.812-2.23-4-5-4s-5 2.188-5 4h-2c0-2.832 2.993-6 7-6s7 3.168 7 6z" fill="#141e21"/>
    </g>
</svg>