<svg id="_01-smile" height="512" viewBox="0 0 48 48" width="512" xmlns="http://www.w3.org/2000/svg"
     data-name="01-smile">
    <circle cx="24" cy="24" fill="#ffce52" r="23"/>
    <path d="m7 26c0 3.32 7.6 7 17 7s17-3.68 17-7a12.636 12.636 0 0 1 -5.6 10.38 19.76 19.76 0 0 1 -22.8 0 12.636 12.636 0 0 1 -5.6-10.38z"
          fill="#ae2d4c"/>
    <path d="m41 26c0 3.32-7.6 7-17 7s-17-3.68-17-7c1 1 8 2 17 2s16-1 17-2z" fill="#f6fafd"/>
    <ellipse cx="33" cy="18" fill="#273941" rx="3" ry="4"/>
    <ellipse cx="15" cy="18" fill="#273941" rx="3" ry="4"/>
    <ellipse cx="33" cy="18" fill="#141e21" rx="2" ry="3"/>
    <ellipse cx="15" cy="18" fill="#141e21" rx="2" ry="3"/>
    <circle cx="34" cy="17" fill="#f6fafd" r="1"/>
    <circle cx="16" cy="17" fill="#f6fafd" r="1"/>
    <path d="m24 35c7.962 0 14.613-2.641 16.468-5.466a12.089 12.089 0 0 0 .532-3.534c0 3.32-7.6 7-17 7s-17-3.68-17-7a12.089 12.089 0 0 0 .532 3.534c1.855 2.825 8.506 5.466 16.468 5.466z"
          fill="#8a293d"/>
    <path d="m39.475 28.655a3.775 3.775 0 0 0 1.525-2.655c-1 1-8 2-17 2s-16-1-17-2a3.775 3.775 0 0 0 1.525 2.655c2.698.739 8.475 1.345 15.475 1.345s12.777-.606 15.475-1.345z"
          fill="#ededed"/>
    <path d="m24 4c12.15 0 22 8.507 22 19h.975a23 23 0 0 0 -45.95 0h.975c0-10.493 9.85-19 22-19z" fill="#ffe369"/>
    <path d="m46 23c0 10.493-9.85 19-22 19s-22-8.507-22-19h-.975c-.014.332-.025.665-.025 1a23 23 0 0 0 46 0c0-.335-.011-.668-.025-1z"
          fill="#ffb32b"/>
    <g fill="#f6fafd">
        <ellipse cx="37" cy="9" rx=".825" ry="1.148" transform="matrix(.707 -.707 .707 .707 4.48 28.81)"/>
        <ellipse cx="30.746" cy="4.5" rx=".413" ry=".574" transform="matrix(.707 -.707 .707 .707 5.829 23.067)"/>
        <ellipse cx="34" cy="7" rx="1.65" ry="2.297" transform="matrix(.707 -.707 .707 .707 5.015 26.102)"/>
    </g>
</svg>