<svg height="512" viewBox="0 0 48 48" width="512" xmlns="http://www.w3.org/2000/svg"
     xmlns:xlink="http://www.w3.org/1999/xlink">
    <radialGradient id="radial-gradient" cx="14.714" cy="2.714"
                    gradientTransform="matrix(2.667 0 0 1.167 -15.238 17.833)" gradientUnits="userSpaceOnUse" r="6">
        <stop offset="0" stop-color="#63b300"/>
        <stop offset=".13" stop-color="#7ab80f"/>
        <stop offset=".547" stop-color="#c1c63d"/>
        <stop offset=".848" stop-color="#eed059"/>
        <stop offset="1" stop-color="#ffd364"/>
    </radialGradient>
    <g id="_26-puke" data-name="26-puke">
        <circle cx="24" cy="24" fill="#ffce52" r="23"/>
        <path d="m24 4c12.15 0 22 8.507 22 19h.975a23 23 0 0 0 -45.95 0h.975c0-10.493 9.85-19 22-19z" fill="#ffe369"/>
        <path d="m46 23c0 10.493-9.85 19-22 19s-22-8.507-22-19h-.975c-.014.332-.025.665-.025 1a23 23 0 0 0 46 0c0-.335-.011-.668-.025-1z"
              fill="#ffb32b"/>
        <ellipse cx="37" cy="9" fill="#f6fafd" rx=".825" ry="1.148"
                 transform="matrix(.707 -.707 .707 .707 4.48 28.81)"/>
        <ellipse cx="30.746" cy="4.5" fill="#f6fafd" rx=".413" ry=".574"
                 transform="matrix(.707 -.707 .707 .707 5.829 23.067)"/>
        <ellipse cx="34" cy="7" fill="#f6fafd" rx="1.65" ry="2.297"
                 transform="matrix(.707 -.707 .707 .707 5.015 26.102)"/>
        <ellipse cx="24" cy="21" fill="url(#radial-gradient)" rx="16" ry="7"/>
        <ellipse cx="24" cy="30" fill="#273941" rx="13" ry="7"/>
        <path d="m9.6 41.93a3.324 3.324 0 0 1 2.4-.93 2.959 2.959 0 0 1 2.92 1.74 2.486 2.486 0 0 1 1.08-.24 2.354 2.354 0 0 1 1.38.42 3.259 3.259 0 0 1 2.62-1.17 3.259 3.259 0 0 1 2.62 1.17 2.477 2.477 0 0 1 2.76 0 3.519 3.519 0 0 1 5.24 0 2.354 2.354 0 0 1 1.38-.42c.06 0 .12.01.18.01a3.047 3.047 0 0 1 2.82-1.51 3.394 3.394 0 0 1 .97.13 2.943 2.943 0 0 1 1.56.92 3.68 3.68 0 0 1 1.06-.28h.01c.13-.01.26-.02.4-.02a3.347 3.347 0 0 1 2.5 1.01 3.347 3.347 0 0 1 2.5-1.01c1.66 0 3 1.01 3 2.25v3h-46v-3c0-.83.9-1.5 2-1.5a2.354 2.354 0 0 1 1.38.42 3.259 3.259 0 0 1 2.62-1.17 3.434 3.434 0 0 1 2.19.73 1.926 1.926 0 0 1 .41-.55z"
              fill="#78b300"/>
        <path d="m34.41 34.19c.38 2.7.99 6.21 1.59 6.81l-.03.13a3.394 3.394 0 0 0 -.97-.13 3.047 3.047 0 0 0 -2.82 1.51c-.06 0-.12-.01-.18-.01a2.354 2.354 0 0 0 -1.38.42 3.519 3.519 0 0 0 -5.24 0 2.477 2.477 0 0 0 -2.76 0 3.259 3.259 0 0 0 -2.62-1.17 3.259 3.259 0 0 0 -2.62 1.17 2.354 2.354 0 0 0 -1.38-.42 2.486 2.486 0 0 0 -1.08.24 2.959 2.959 0 0 0 -2.92-1.74c.6-.6 1.21-4.11 1.59-6.81.25-1.77.41-3.19.41-3.19v-1a3 3 0 0 1 3-3h14a3 3 0 0 1 3 3v1s.16 1.42.41 3.19z"
              fill="#4f813b"/>
        <path d="m37.553 20.9c-1.789-.9-3.836-.9-7.553-.9a1 1 0 0 1 -1-1c0-2.265 3.568-5 8-5v2a7.8 7.8 0 0 0 -5.418 2c3.057.018 4.962.151 6.865 1.1z"
              fill="#273941"/>
        <path d="m10.447 20.9-.894-1.79c1.9-.951 3.808-1.084 6.865-1.1a7.8 7.8 0 0 0 -5.418-2.01v-2c4.432 0 8 2.735 8 5a1 1 0 0 1 -1 1c-3.717 0-5.764 0-7.553.9z"
              fill="#273941"/>
        <path d="m36 13c-5.131 0-9-2.149-9-5h2c0 1.416 2.994 3 7 3z" fill="#273941"/>
        <path d="m12 13v-2c4.006 0 7-1.584 7-3h2c0 2.851-3.869 5-9 5z" fill="#273941"/>
        <path d="m24 25c6.547 0 11.949 2.609 12.852 6a3.846 3.846 0 0 0 .148-1c0-3.866-5.82-7-13-7s-13 3.134-13 7a3.846 3.846 0 0 0 .148 1c.903-3.391 6.305-6 12.852-6z"
              fill="#141e21"/>
        <path d="m14 33v-1a3 3 0 0 1 3-3h14a3 3 0 0 1 3 3v1s.16 1.42.41 3.19c.223 1.581.524 3.437.856 4.827a3.187 3.187 0 0 1 .7.113l.034-.13c-.6-.6-1.21-4.11-1.59-6.81-.25-1.77-.41-3.19-.41-3.19v-1a3 3 0 0 0 -3-3h-14a3 3 0 0 0 -3 3v1s-.16 1.42-.41 3.19c-.38 2.7-.99 6.21-1.59 6.81a3.931 3.931 0 0 1 .72.074c.337-1.4.644-3.281.87-4.884.25-1.77.41-3.19.41-3.19z"
              fill="#78b300"/>
        <path d="m35 39a3.047 3.047 0 0 0 -2.82 1.51c-.06 0-.12-.01-.18-.01a2.354 2.354 0 0 0 -1.38.42 3.519 3.519 0 0 0 -5.24 0 2.477 2.477 0 0 0 -2.76 0 3.259 3.259 0 0 0 -2.62-1.17 3.259 3.259 0 0 0 -2.62 1.17 2.354 2.354 0 0 0 -1.38-.42 2.486 2.486 0 0 0 -1.08.24 2.737 2.737 0 0 0 -2.2-1.666 5.137 5.137 0 0 1 -.72 1.926 2.959 2.959 0 0 1 2.92 1.74 2.486 2.486 0 0 1 1.08-.24 2.354 2.354 0 0 1 1.38.42 3.259 3.259 0 0 1 2.62-1.17 3.259 3.259 0 0 1 2.62 1.17 2.477 2.477 0 0 1 2.76 0 3.519 3.519 0 0 1 5.24 0 2.354 2.354 0 0 1 1.38-.42c.06 0 .12.01.18.01a3.047 3.047 0 0 1 2.82-1.51 3.394 3.394 0 0 1 .97.13l.03-.13a5.292 5.292 0 0 1 -.734-1.983c-.088-.006-.175-.017-.266-.017z"
              fill="#426704"/>
        <circle cx="19" cy="32" fill="#78b300" r="2"/>
        <circle cx="22" cy="36" fill="#78b300" r="1"/>
        <circle cx="25" cy="32" fill="#78b300" r="1"/>
        <circle cx="16" cy="45" fill="#4f813b" r="1"/>
        <circle cx="24" cy="44" fill="#4f813b" r="1"/>
        <circle cx="32" cy="45" fill="#4f813b" r="1"/>
        <circle cx="44" cy="43" fill="#4f813b" r="1"/>
        <circle cx="8" cy="44" fill="#4f813b" r="1"/>
        <g fill="#a9cc11">
            <circle cx="16.5" cy="37.5" r=".5"/>
            <circle cx="29.5" cy="31.5" r=".5"/>
            <circle cx="32.5" cy="36.5" r=".5"/>
            <circle cx="34.5" cy="44.5" r=".5"/>
            <circle cx="3.5" cy="43.5" r=".5"/>
            <circle cx="42.5" cy="43.5" r=".5"/>
            <circle cx="44.5" cy="45.5" r=".5"/>
            <circle cx="34.5" cy="42.5" r=".5"/>
            <circle cx="18.5" cy="43.5" r=".5"/>
            <circle cx="27.5" cy="45.5" r=".5"/>
            <circle cx="24.5" cy="38.5" r=".5"/>
        </g>
        <circle cx="28" cy="36" fill="#78b300" r="2"/>
        <circle cx="39" cy="44" fill="#a9cc11" r="2"/>
        <circle cx="12" cy="44" fill="#a9cc11" r="2"/>
        <ellipse cx="41" cy="44" fill="#f6fafd" rx=".825" ry="1.148"
                 transform="matrix(.707 -.707 .707 .707 -19.105 41.899)"/>
        <ellipse cx="32" cy="31" fill="#f6fafd" rx=".825" ry="1.148"
                 transform="matrix(.707 -.707 .707 .707 -12.547 31.722)"/>
        <ellipse cx="38.746" cy="43.5" fill="#f6fafd" rx=".413" ry=".574"
                 transform="matrix(.707 -.707 .707 .707 -19.412 40.158)"/>
        <ellipse cx="32.746" cy="33.5" fill="#f6fafd" rx=".413" ry=".574"
                 transform="matrix(.707 -.707 .707 .707 -14.097 32.983)"/>
    </g>
</svg>