<svg height="512" viewBox="0 0 48 48" width="512" xmlns="http://www.w3.org/2000/svg">
    <g id="_24-sleep" data-name="24-sleep">
        <circle cx="24" cy="24" fill="#ffce52" r="23"/>
        <path d="m24 4c12.15 0 22 8.507 22 19h.975a23 23 0 0 0 -45.95 0h.975c0-10.493 9.85-19 22-19z" fill="#ffe369"/>
        <path d="m46 23c0 10.493-9.85 19-22 19s-22-8.507-22-19h-.975c-.014.332-.025.665-.025 1a23 23 0 0 0 46 0c0-.335-.011-.668-.025-1z"
              fill="#ffb32b"/>
        <g fill="#f6fafd">
            <ellipse cx="37" cy="8" rx=".825" ry="1.148" transform="matrix(.707 -.707 .707 .707 5.187 28.517)"/>
            <ellipse cx="30.746" cy="3.5" rx=".413" ry=".574" transform="matrix(.707 -.707 .707 .707 6.537 22.774)"/>
            <ellipse cx="34" cy="6" rx="1.65" ry="2.297" transform="matrix(.707 -.707 .707 .707 5.723 25.809)"/>
        </g>
        <ellipse cx="24" cy="31" fill="#273941" rx="4" ry="5"/>
        <path d="m24 27c2.072 0 3.756 1.977 3.96 4.5.013-.167.04-.329.04-.5 0-2.761-1.791-5-4-5s-4 2.239-4 5c0 .171.027.333.04.5.204-2.523 1.888-4.5 3.96-4.5z"
              fill="#141e21"/>
        <path d="m24 36a4.024 4.024 0 0 0 3.579-2.808 5.969 5.969 0 0 0 -7.158 0 4.024 4.024 0 0 0 3.579 2.808z"
              fill="#ae2d4c"/>
        <path d="m24 35a3.789 3.789 0 0 1 -3.2-2.047c-.125.08-.258.15-.378.239a4.024 4.024 0 0 0 3.578 2.808 4.024 4.024 0 0 0 3.579-2.808c-.12-.089-.253-.159-.378-.239a3.789 3.789 0 0 1 -3.201 2.047z"
              fill="#8a293d"/>
        <path d="m14 23a5.006 5.006 0 0 1 -5-5h2a3 3 0 0 0 6 0h2a5.006 5.006 0 0 1 -5 5z" fill="#273941"/>
        <path d="m34 23a5.006 5.006 0 0 1 -5-5h2a3 3 0 0 0 6 0h2a5.006 5.006 0 0 1 -5 5z" fill="#273941"/>
        <path d="m48 8h-7a1 1 0 0 1 -.707-1.707l4.293-4.293h-3.586v-2h6a1 1 0 0 1 .707 1.707l-4.293 4.293h4.586z"
              fill="#048ec6"/>
        <path d="m36 15h-6a1 1 0 0 1 -.707-1.707l4.293-4.293h-3.586v-2h6a1 1 0 0 1 .707 1.707l-4.293 4.293h3.586z"
              fill="#048ec6"/>
        <path d="m26 11h-4a1 1 0 0 1 -.707-1.707l2.293-2.293h-1.586v-2h4a1 1 0 0 1 .707 1.707l-2.293 2.293h1.586z"
              fill="#048ec6"/>
    </g>
</svg>