<svg id="Layer_1" data-name="Layer 1" xmlns="http://www.w3.org/2000/svg" viewBox="0 0 2000 2000">
  <path fill="#0243ad" d="M356.76 932.54V1037a14.41 14.41 0 0 1-14.41 14.41 14.41 14.41 0 0 1-14.41-14.41V932.54a14.41 14.41 0 0 1 14.41-14.41 14.41 14.41 0 0 1 14.41 14.41ZM389.84 977.13v-17.09a13.62 13.62 0 0 1 13.61-13.7A13.62 13.62 0 0 1 417 959.27c.08 1.6.14 3 .18 4 5.1-7.45 13.14-14.27 27.82-14.27 14.38 0 22.29 7.45 25.82 15.22 5.85-8.18 14.49-15.22 30.82-15.22 17.43 0 31.71 10.72 31.71 36.73v52.13a13.51 13.51 0 0 1-13.51 13.51 13.51 13.51 0 0 1-13.51-13.51v-48.73c0-9-3.28-17.88-14.62-17.88-11.77 0-16.36 7.59-16.36 22.94v43.69a13.51 13.51 0 0 1-13.51 13.51h-.15a13.51 13.51 0 0 1-13.51-13.51v-47.71c0-10.37-2.55-18.75-14.38-18.75-11.26 0-16.6 6.93-16.6 24.09v42.37a13.51 13.51 0 0 1-13.51 13.51h-.34a13.51 13.51 0 0 1-13.51-13.51ZM593.45 1042.53v33.41a13.76 13.76 0 0 1-13.77 13.76 13.76 13.76 0 0 1-13.76-13.76V960.15a13.73 13.73 0 0 1 13.74-13.81 13.73 13.73 0 0 1 13.72 13.26c.06 1.73.1 3.23.1 4.2 4.29-7.34 13.22-14.78 29.08-14.78 22.47 0 39.85 18.8 39.85 49.83 0 35.3-19.41 54.85-43.64 54.85-14.15 0-21.51-5.32-25.32-11.17Zm40.82-42.61c0-18.34-7.42-28.69-20.6-28.69-15.73 0-21.31 10.1-21.31 30.26 0 19.09 5.16 30.2 20.13 30.2 14.65 0 21.78-11.39 21.78-31.77ZM689.23 978.48v-16.24a13.82 13.82 0 0 1 13.77-13.9 13.82 13.82 0 0 1 13.81 13.48c.07 2.75.1 5.32.1 7.09C721.35 957.47 732 949.11 749 949v26.43c-20.1-.52-32.1 4.89-32.1 32.32v29.77a13.86 13.86 0 0 1-13.85 13.85 13.86 13.86 0 0 1-13.85-13.85ZM861 1022.32v18.13a13.86 13.86 0 0 1-13.85 13.94 13.86 13.86 0 0 1-13.84-13.31v-1.23c-5.93 10-14.77 13.85-27.55 13.85-20.38 0-33.4-12.38-33.4-37.19v-51.33a13.84 13.84 0 0 1 13.84-13.84 13.84 13.84 0 0 1 13.84 13.84V1011c0 11 3.43 20.17 15.41 20.17 12.63 0 17.86-6.73 17.86-26.54v-39.4a13.85 13.85 0 0 1 13.85-13.85A13.85 13.85 0 0 1 861 965.19ZM902.6 951.34a12.82 12.82 0 0 1 12.34 9.37c8.34 29.9 15 55.28 16.81 66.19h.19c2.52-14.79 10.64-40.53 18.57-66.49a12.79 12.79 0 0 1 12.24-9.07 12.81 12.81 0 0 1 12.08 17.07l-29.31 83H916.4l-28.17-83.13a12.81 12.81 0 0 1 12.13-16.92ZM1093.7 1001.17c0 30.27-18.12 52.53-49.81 52.53-31 0-49.13-22.13-49.13-52 0-30.87 18.67-52.68 50.44-52.68 29.45-.02 48.5 20.78 48.5 52.15Zm-70.83.19c0 19.26 8.28 30.67 21.62 30.67 13.56 0 21.1-11.42 21.1-30.5 0-20.93-7.68-30.83-21.48-30.83-12.85 0-21.24 9.51-21.24 30.66ZM1120.62 976.55v-14.34a13.81 13.81 0 0 1 13.81-13.87 13.81 13.81 0 0 1 13.8 13.22c0 1 .08 1.9.11 2.53 3.4-6.29 11.5-15.07 29-15.07 20.1 0 33.15 13.58 33.15 38.72v49.8a13.86 13.86 0 0 1-13.85 13.85 13.86 13.86 0 0 1-13.85-13.85v-46.72c0-11.25-3.74-19.4-16-19.4-11.78 0-18.51 6.55-18.51 24.21v41.91a13.86 13.86 0 0 1-13.85 13.85 13.86 13.86 0 0 1-13.85-13.85Z"/>
  <path fill="#48a5d3" d="M1258.51 918.13a14.41 14.41 0 0 1 14.41 14.41v37.56h53.61v-37.56a14.41 14.41 0 0 1 14.41-14.41 14.41 14.41 0 0 1 14.41 14.41V1037a14.41 14.41 0 0 1-14.41 14.41 14.41 14.41 0 0 1-14.41-14.41v-43.28h-53.61V1037a14.41 14.41 0 0 1-14.41 14.41 14.41 14.41 0 0 1-14.4-14.41V932.54a14.41 14.41 0 0 1 14.4-14.41ZM1411.34 1007.29c0 12.51 6.3 24.74 20.09 24.74 8.17 0 12.2-2.32 14.79-5.83a11.65 11.65 0 0 1 9.34-4.85h.61c10.71 0 16 13.13 8.25 20.48-7.11 6.7-17.78 11.87-33.72 11.87-33 0-47.25-24.63-47.25-50.88 0-31.39 16.11-53.8 48.24-53.8 34.36 0 46 24.86 46 49.83a62.17 62.17 0 0 1-.36 8.44Zm38.64-17c-.19-11.65-4.84-21.45-18.34-21.45-13.27 0-18.61 9.15-19.72 21.45ZM1587.28 1025.54c0 4.25.16 10 .38 15.21a13.1 13.1 0 0 1-13.09 13.64h-.78a13 13 0 0 1-13-12.71v-.07c-3.63 5.62-10.43 12.09-28.13 12.09-24.12 0-34.3-15.85-34.3-31.37 0-22.79 18.3-33.31 47.64-33.31h14.28v-6.11c0-7.11-2.56-14.11-15.41-14.11-7.8 0-11.53 2.21-13.53 5.83a12 12 0 0 1-10.45 6.39h-.82a12.12 12.12 0 0 1-9-20.24c6.56-7.25 17.57-11.85 34.85-11.76 26.8.17 41.38 10.64 41.38 34.45Zm-27-19.7H1549c-16.69 0-22.88 5.1-22.88 14.74 0 7.25 4.45 13.34 14.4 13.34 17.6 0 19.77-12.23 19.77-25.45ZM1620.09 1037.54V924.15a13.85 13.85 0 0 1 13.85-13.85 13.85 13.85 0 0 1 13.85 13.85v113.39a13.86 13.86 0 0 1-13.85 13.85 13.86 13.86 0 0 1-13.85-13.85ZM1681.26 951.34h5V938.1a13.86 13.86 0 0 1 13.85-13.85A13.85 13.85 0 0 1 1714 938.1v13.24h9.19a10.41 10.41 0 0 1 10.41 10.41 10.42 10.42 0 0 1-10.41 10.42H1714v49.37c0 7.59 2.32 10.54 10.58 10.54a6.27 6.27 0 0 1 6.26 6.26v7.53a6.24 6.24 0 0 1-5.29 6.18 92.65 92.65 0 0 1-13.33.69c-19.52 0-26-10.44-26-28v-52.57h-5a10.42 10.42 0 0 1-10.41-10.42 10.41 10.41 0 0 1 10.45-10.41ZM1784.83 924.15v39c4.39-6.47 12.5-14.13 28.65-14.13 18.66 0 33.52 11 33.52 38.18v50.42a13.77 13.77 0 0 1-13.77 13.77 13.77 13.77 0 0 1-13.76-13.77v-46.28c0-13-4.61-19.92-16.23-19.92-15.39 0-18.41 11.45-18.41 26.89v39.31a13.78 13.78 0 0 1-13.77 13.77h-.17a13.78 13.78 0 0 1-13.77-13.77V924.15A13.86 13.86 0 0 1 1771 910.3a13.86 13.86 0 0 1 13.83 13.85Z"/>
  <path fill="#0243ad" d="M254.34 1031.51v71.86a46.71 46.71 0 0 1-93.42 0v-71.86Z"/>
  <path fill="#49a8d7" d="M249.55 1015.93v-4.82h-79.02v-49.04h74.19v53.86h4.83v-4.82 4.82h4.83v-63.51h-93.5v68.34h93.5v-4.83h-4.83z"/>
  <path fill="#48a5d3" d="M238.8 954.85v-32.66l-.86-1.24a38.2 38.2 0 0 0-31.51-16.44 38.14 38.14 0 0 0-30.85 15.55l-.58.78-.94 1.28v23.15h9.65v-21.56h-4.83l3.88 2.87.57-.77a28.43 28.43 0 0 1 10.45-8.74 28.68 28.68 0 0 1 36.24 9.4l4-2.76h-4.83v31.14h9.65Z"/>
  <path fill="#2f5188" d="m181.09 896-.59-.6.59.6-.59-.6.59.6a42.75 42.75 0 0 1 7.63-5.64 36.74 36.74 0 0 1 18.42-5.42 41.56 41.56 0 0 1 21 5.57 38.38 38.38 0 0 1 5.42 3.8c.6.51 1 .92 1.33 1.2l.31.32.07.06a3.13 3.13 0 1 0 4.63-4.2 38.54 38.54 0 0 0-8.63-6.59 47.76 47.76 0 0 0-24.12-6.41 43.18 43.18 0 0 0-21.84 6.43 47.49 47.49 0 0 0-8.63 6.47 3.12 3.12 0 1 0 4.42 4.41Z"/>
  <path fill="#2f5188" d="m169.27 886.23-.2-.17.19.17-.2-.17.19.17a53.57 53.57 0 0 1 10.44-8.61 49.56 49.56 0 0 1 26.73-8.28 54.59 54.59 0 0 1 28.62 7.93 50.6 50.6 0 0 1 7.36 5.42c.82.74 1.44 1.34 1.83 1.75l.44.46.09.1.64-.56-.65.56.64-.56-.65.56a3.13 3.13 0 0 0 4.75-4.07 50.24 50.24 0 0 0-11.23-9 60.89 60.89 0 0 0-31.87-8.84 52.5 52.5 0 0 0-17.31 3 62.74 62.74 0 0 0-18 10 51.82 51.82 0 0 0-6.62 6.1 3.13 3.13 0 0 0 4.73 4.09Z"/>
  <path fill="#2f5188" d="M158.38 875.56a66.52 66.52 0 0 1 13.24-9.88 68 68 0 0 1 34.06-9.52 74.6 74.6 0 0 1 36.4 9.19 65.32 65.32 0 0 1 9.35 6.28c1 .85 1.82 1.55 2.33 2 .25.24.44.42.55.54l.13.12 1.28-1.21-1.28 1.2 1.28-1.21-1.28 1.2a3.12 3.12 0 1 0 4.55-4.28 60.73 60.73 0 0 0-13.9-10.17 80.57 80.57 0 0 0-39.43-10 74.16 74.16 0 0 0-37.63 10.61 71.22 71.22 0 0 0-14.18 10.71 3.12 3.12 0 1 0 4.51 4.32Z"/>
  <path d="M208.83 1134.46c-17.6-8-30-15.41-30-38v-48.11H168.1v44.13c0 45.28 39.65 41.98 40.73 41.98Z" fill="#fff"/>
</svg>