<svg width="130" height="187" viewBox="0 0 130 187" fill="none" xmlns="http://www.w3.org/2000/svg">
<g clip-path="url(#clip0_1294_5147)">
<path fill-rule="evenodd" clip-rule="evenodd" d="M85.0667 0.117013C68.8972 1.21378 57.5107 9.65409 59.6234 19.011C59.6355 19.0644 59.648 19.1177 59.6609 19.171V36.5962C59.6352 37.4333 59.7172 38.2702 59.905 39.0864C60.1828 40.3135 60.6803 41.4938 61.3718 42.6157C61.1938 43.4398 61.0987 44.2994 61.1016 45.2063L61.1044 46.1187C57.5618 44.6058 53.0652 43.8349 48.3809 44.1519C38.6665 44.8089 31.8239 49.8901 33.0979 55.501C33.2831 56.3164 33.6294 57.0981 34.116 57.8367L34.1086 57.846C33.7382 57.2856 33.4486 56.7003 33.2488 56.0942V59.1422C32.4687 60.5863 32.2016 62.1384 32.5575 63.7131L32.5627 63.7359V65.2763C32.5612 65.4731 32.572 65.6693 32.5949 65.8639C27.9224 68.3417 24.8709 72.057 24.998 77.012V132.145C20.3149 134.29 16.3046 136.969 13.2051 140.034C11.9957 138.98 10.4723 138.332 8.85275 138.201C6.86263 138.04 4.88978 138.674 3.36661 139.962C2.2946 140.867 1.50287 142.058 1.08398 143.395C1.08513 143.422 1.08643 143.449 1.08787 143.476C0.926005 143.997 0.82024 144.538 0.775036 145.09C0.612892 147.071 1.24308 149.035 2.52782 150.554L6.19391 154.864C6.19224 154.963 6.19141 155.063 6.19141 155.163C6.19141 170.921 26.9473 183.775 52.3747 183.775C55.0517 183.775 57.6769 183.632 60.2314 183.359C61.2302 184.884 62.7538 186.001 64.5231 186.492C66.4417 187.024 68.4933 186.777 70.2298 185.804L93.9638 172.426C95.6675 171.458 96.9253 169.866 97.4727 167.99L98.7418 168.706C99.8507 169.325 101.087 169.65 102.336 169.665C103.048 169.674 103.764 169.583 104.462 169.389C106.38 168.856 108.009 167.588 108.994 165.861C109.968 164.127 110.215 162.079 109.681 160.164C109.574 159.78 109.438 159.409 109.274 159.051C108.622 157.612 107.526 156.416 106.144 155.64L98.092 151.101L98.0919 151.1C97.9297 150.399 97.726 149.705 97.4826 149.021C115.877 146.611 129.751 136.457 129.751 124.359C129.751 117.566 125.375 111.386 118.283 106.845L118.291 104.006C118.367 103.499 118.407 102.978 118.41 102.445L118.545 79.0886L118.548 79.0789L118.639 63.0513H118.453C118.439 63.0918 118.426 63.1323 118.411 63.1728L118.464 45.2063C118.47 43.6263 118.177 42.1902 117.667 40.8346L117.667 40.8294V40.6096C118.085 39.3767 118.267 38.0998 118.186 36.7975V19.6361C118.129 19.8102 118.067 19.9834 118 20.1558C118.49 18.5131 118.566 16.7965 118.17 15.0478C116.052 5.6909 101.247 -0.974452 85.0667 0.117013Z" fill="#9FC6FF"/>
<g style="mix-blend-mode:overlay">
<path fill-rule="evenodd" clip-rule="evenodd" d="M52.3747 183.775C77.8074 183.775 98.558 170.916 98.558 155.164C98.558 139.412 77.8127 126.553 52.3747 126.553C26.9367 126.553 6.19141 139.407 6.19141 155.164C6.19141 170.921 26.9473 183.775 52.3747 183.775Z" fill="#DCDCFF"/>
<path fill-rule="evenodd" clip-rule="evenodd" d="M89.0827 149.563C111.484 149.563 129.751 138.24 129.751 124.359C129.751 110.477 111.479 99.1543 89.0827 99.1543C66.6865 99.1543 48.4414 110.477 48.4414 124.359C48.4414 138.24 66.6865 149.563 89.0827 149.563Z" fill="#DCDCFF"/>
<path fill-rule="evenodd" clip-rule="evenodd" d="M89.783 138.988C76.0077 138.855 61.3723 132.947 61.3405 124.428L61.1016 45.2063C61.0645 33.5869 77.1118 29.7509 77.4728 8.47266H89.783V138.988ZM89.783 138.988C103.558 138.855 118.194 132.947 118.231 124.428L118.464 45.2063C118.502 33.5869 102.454 29.7509 102.093 8.47266H89.783V138.988Z" fill="#23C0BB"/>
<path fill-rule="evenodd" clip-rule="evenodd" d="M89.7818 132.651C77.2858 132.529 64.0094 127.167 63.9775 119.437L63.7599 46.7643C63.7121 36.2205 78.289 32.7395 78.6235 13.4375H89.7712V132.651H89.7818ZM89.7818 132.651C102.278 132.529 115.554 127.167 115.591 119.437L115.804 46.7643C115.836 36.2205 101.275 32.7395 100.94 13.4375H89.7924L89.7818 132.651Z" fill="#74E2D7"/>
<path d="M89.6013 13.4375H80.2903C80.0143 32.7395 67.6563 36.2205 67.6934 46.7643L67.8739 119.437C67.9058 127.167 79.165 132.529 89.7659 132.651V13.4375H89.6013Z" fill="#BBF9F7"/>
<path d="M99.2568 13.4375H89.7812V132.651C100.398 132.529 111.647 127.167 111.673 119.437L111.854 46.7643C111.88 36.2205 99.5328 32.7395 99.2568 13.4375Z" fill="#BBF9F7"/>
<path fill-rule="evenodd" clip-rule="evenodd" d="M85.2489 14.369C70.2526 15.8472 59.6889 24.0491 61.653 32.6908C63.6171 41.3324 77.3659 47.1394 92.3622 45.6665C107.358 44.1935 117.922 35.9863 115.958 27.3447C113.994 18.703 100.24 12.896 85.2489 14.369Z" fill="#CA4E02"/>
<path fill-rule="evenodd" clip-rule="evenodd" d="M115.129 21.6661V37.0313C115.606 44.7352 105.849 51.4482 92.3395 52.3648C78.0067 53.3344 64.8206 47.395 62.9361 39.1189C62.7702 38.3874 62.6971 37.638 62.7185 36.8883V21.2422C65.3461 29.1897 78.3093 34.7954 92.3979 33.847C104.087 33.0523 113.016 27.987 115.129 21.6661Z" fill="#B13305"/>
<path fill-rule="evenodd" clip-rule="evenodd" d="M85.4549 3.26939C70.8408 4.26019 60.5478 11.9057 62.4588 20.3461C64.3699 28.7864 77.7736 34.8318 92.3877 33.8463C107.002 32.8608 117.295 25.2153 115.379 16.7696C113.462 8.32404 100.064 2.28389 85.4549 3.26939Z" fill="#5C1C07"/>
<path fill-rule="evenodd" clip-rule="evenodd" d="M86.1727 6.42781C74.5791 7.20137 66.4095 13.2786 67.9277 19.9758C69.4459 26.6729 80.0787 31.4732 91.6722 30.6891C103.266 29.9049 111.435 23.8383 109.912 17.1358C108.388 10.4334 97.761 5.64365 86.1727 6.42781Z" fill="#892604"/>
<path fill-rule="evenodd" clip-rule="evenodd" d="M86.1738 6.42715C82.414 6.62258 78.7243 7.52123 75.2969 9.07633V27.7637C79.6869 29.9254 85.5421 31.0752 91.6734 30.6619C95.4689 30.4556 99.1906 29.5314 102.641 27.9385V9.36774C98.2452 7.20071 92.3475 6.01387 86.1738 6.42715Z" fill="#B13305"/>
<path fill-rule="evenodd" clip-rule="evenodd" d="M85.0667 0.117013C68.8972 1.21378 57.5107 9.65409 59.6234 19.011C61.7362 28.3679 76.5679 35.0386 92.7374 33.9418C108.907 32.8451 120.288 24.4048 118.17 15.0478C116.052 5.6909 101.247 -0.974452 85.0667 0.117013Z" fill="#FFDC80"/>
<path fill-rule="evenodd" clip-rule="evenodd" d="M115.13 27.25V30.5509C114.424 42.1225 76.0437 53.7366 62.709 35.8122V30.6728C68.2297 47.3891 109.428 44.3161 115.13 27.25Z" fill="#CA4E02"/>
<path fill-rule="evenodd" clip-rule="evenodd" d="M116.191 28.8447V32.2834C115.501 43.7173 79.4518 55.1882 63.9459 40.3316C63.2141 39.6573 62.6319 38.8375 62.2369 37.9249C61.8419 37.0123 61.6429 36.0273 61.6527 35.0332V32.384C67.3858 49.8051 110.262 46.6102 116.191 28.8447Z" fill="#892604"/>
<path fill-rule="evenodd" clip-rule="evenodd" d="M118.186 19.6356V36.7971C118.717 45.4016 107.824 52.8988 92.7376 53.9214C76.7062 54.9811 62.0072 48.374 59.905 39.0859C59.7172 38.2697 59.6352 37.4328 59.6608 36.5957V19.1641C62.5964 28.0653 77.0672 34.2962 92.8066 33.2365C105.86 32.3517 115.856 26.6984 118.186 19.6356Z" fill="#E88F00"/>
<path fill-rule="evenodd" clip-rule="evenodd" d="M61.6484 23.7207C61.7565 23.7207 61.8635 23.742 61.9633 23.7832C62.0631 23.8245 62.1538 23.885 62.2302 23.9613C62.3066 24.0375 62.3672 24.1281 62.4086 24.2277C62.4499 24.3273 62.4712 24.4341 62.4712 24.542V40.2252C62.4698 40.4425 62.3827 40.6506 62.2287 40.8043C62.0747 40.958 61.8662 41.045 61.6484 41.0464C61.4297 41.0464 61.2199 40.9601 61.0647 40.8062C60.9096 40.6523 60.8217 40.4435 60.8203 40.2252V24.542C60.8203 24.4337 60.8418 24.3264 60.8834 24.2265C60.9251 24.1265 60.9862 24.0357 61.0632 23.9594C61.1402 23.883 61.2315 23.8227 61.3319 23.7817C61.4324 23.7407 61.5399 23.72 61.6484 23.7207ZM116.384 24.1181C116.603 24.1181 116.814 24.2052 116.969 24.3602C117.124 24.5152 117.212 24.7254 117.212 24.9446V40.6278C117.21 40.8461 117.122 41.055 116.967 41.2089C116.812 41.3627 116.602 41.4491 116.384 41.4491C116.166 41.4477 115.957 41.3607 115.803 41.207C115.649 41.0533 115.562 40.8452 115.561 40.6278V24.9446C115.561 24.7263 115.647 24.5169 115.801 24.3621C115.956 24.2072 116.165 24.1195 116.384 24.1181ZM113.167 27.0958C113.384 27.0972 113.593 27.1841 113.747 27.3379C113.901 27.4916 113.988 27.6997 113.989 27.917V43.6002C113.989 43.8185 113.903 44.028 113.749 44.1828C113.595 44.3377 113.385 44.4254 113.167 44.4268C112.947 44.4268 112.736 44.3397 112.581 44.1847C112.426 44.0297 112.339 43.8194 112.339 43.6002V27.917C112.34 27.6987 112.428 27.4899 112.583 27.336C112.738 27.1821 112.948 27.0958 113.167 27.0958ZM109.944 29.3794C110.163 29.3794 110.373 29.4657 110.528 29.6196C110.683 29.7735 110.771 29.9823 110.773 30.2006V45.8785C110.773 46.0977 110.685 46.308 110.53 46.463C110.375 46.618 110.164 46.7051 109.944 46.7051C109.726 46.7037 109.516 46.616 109.362 46.4611C109.208 46.3063 109.122 46.0968 109.122 45.8785V30.1953C109.123 29.978 109.21 29.7699 109.364 29.6162C109.518 29.4624 109.727 29.3755 109.944 29.3741V29.3794ZM106.728 30.8841C106.945 30.8855 107.154 30.9725 107.308 31.1262C107.462 31.2799 107.549 31.488 107.55 31.7054V47.3886C107.55 47.6069 107.464 47.8163 107.31 47.9712C107.156 48.126 106.946 48.2137 106.728 48.2151C106.508 48.2151 106.297 48.128 106.142 47.973C105.987 47.818 105.899 47.6078 105.899 47.3886V31.7054C105.901 31.4871 105.989 31.2782 106.144 31.1243C106.299 30.9705 106.509 30.8841 106.728 30.8841ZM103.505 32.1292C103.724 32.1292 103.933 32.2158 104.087 32.3698C104.241 32.5238 104.328 32.7327 104.328 32.9505V48.6337C104.329 48.7417 104.308 48.8488 104.267 48.9488C104.226 49.0487 104.165 49.1396 104.089 49.216C104.012 49.2924 103.921 49.3528 103.821 49.3939C103.721 49.4349 103.614 49.4556 103.505 49.4549C103.397 49.4549 103.29 49.4337 103.19 49.3924C103.091 49.3511 103 49.2907 102.924 49.2144C102.847 49.1381 102.787 49.0476 102.745 48.948C102.704 48.8483 102.683 48.7415 102.683 48.6337V32.9505C102.684 32.7331 102.771 32.525 102.925 32.3713C103.079 32.2176 103.288 32.1306 103.505 32.1292ZM100.283 33.0935C100.502 33.0935 100.712 33.1799 100.867 33.3338C101.022 33.4876 101.11 33.6965 101.111 33.9148V49.5874C101.111 49.8066 101.024 50.0168 100.869 50.1718C100.713 50.3269 100.503 50.4139 100.283 50.4139C100.064 50.4125 99.8552 50.3248 99.701 50.17C99.5468 50.0151 99.4603 49.8057 99.4603 49.5874V33.9042C99.4617 33.6868 99.5489 33.4787 99.7029 33.325C99.8569 33.1713 100.065 33.0843 100.283 33.0829V33.0935ZM97.0662 33.6234C97.2844 33.6234 97.4937 33.7099 97.648 33.8639C97.8023 34.0179 97.889 34.2268 97.889 34.4446V50.1172C97.8876 50.3346 97.8005 50.5427 97.6465 50.6964C97.4925 50.8501 97.284 50.9371 97.0662 50.9385C96.848 50.9385 96.6387 50.8519 96.4844 50.6979C96.3301 50.5439 96.2434 50.335 96.2434 50.1172V34.434C96.2427 34.326 96.2635 34.2189 96.3046 34.1189C96.3457 34.019 96.4063 33.9282 96.4828 33.8518C96.5594 33.7754 96.6504 33.7149 96.7505 33.6739C96.8507 33.6328 96.958 33.6121 97.0662 33.6128V33.6234ZM93.844 33.8883C94.0627 33.8883 94.2726 33.9747 94.4277 34.1285C94.5829 34.2824 94.6707 34.4913 94.6721 34.7096V50.3927C94.6721 50.612 94.5849 50.8222 94.4296 50.9772C94.2743 51.1322 94.0636 51.2193 93.844 51.2193C93.6253 51.2179 93.416 51.1302 93.2619 50.9753C93.1077 50.8205 93.0212 50.611 93.0212 50.3927V34.7096C93.0226 34.4922 93.1097 34.2841 93.2637 34.1304C93.4177 33.9767 93.6262 33.8897 93.844 33.8883ZM90.6271 33.9201C90.8449 33.9243 91.0522 34.0139 91.2043 34.1696C91.3563 34.3253 91.4407 34.5345 91.4393 34.7519V50.4351C91.4379 50.6525 91.3508 50.8606 91.1968 51.0143C91.0428 51.168 90.8343 51.255 90.6165 51.2564C90.3983 51.2564 90.189 51.1699 90.0347 51.0158C89.8804 50.8618 89.7937 50.6529 89.7937 50.4351V34.7519C89.793 34.6436 89.8137 34.5363 89.8548 34.436C89.8958 34.3358 89.9563 34.2446 90.0328 34.1678C90.1093 34.091 90.2002 34.03 90.3004 33.9884C90.4006 33.9468 90.508 33.9254 90.6165 33.9254L90.6271 33.9201ZM87.4049 33.9519C87.6236 33.9519 87.8334 34.0382 87.9886 34.1921C88.1437 34.346 88.2316 34.5548 88.233 34.7731V50.4563C88.2316 50.6746 88.1437 50.8835 87.9886 51.0374C87.8334 51.1912 87.6236 51.2776 87.4049 51.2776C87.1871 51.2762 86.9786 51.1892 86.8246 51.0355C86.6706 50.8818 86.5835 50.6737 86.5821 50.4563V34.7731C86.5835 34.5558 86.6706 34.3477 86.8246 34.194C86.9786 34.0402 87.1871 33.9533 87.4049 33.9519ZM84.188 33.7611C84.4067 33.7625 84.616 33.8502 84.7701 34.0051C84.9243 34.16 85.0108 34.3694 85.0108 34.5877V50.2709C85.0094 50.4883 84.9223 50.6963 84.7683 50.8501C84.6142 51.0038 84.4058 51.0907 84.188 51.0921C83.9693 51.0921 83.7594 51.0058 83.6043 50.8519C83.4491 50.6981 83.3613 50.4892 83.3599 50.2709V34.5877C83.3599 34.3685 83.4471 34.1582 83.6024 34.0032C83.7577 33.8482 83.9684 33.7611 84.188 33.7611ZM80.9658 33.2313C81.184 33.2313 81.3933 33.3178 81.5476 33.4718C81.7019 33.6259 81.7886 33.8347 81.7886 34.0526V49.7357C81.7893 49.844 81.7685 49.9514 81.7275 50.0517C81.6864 50.1519 81.6259 50.2431 81.5495 50.3199C81.473 50.3967 81.3821 50.4577 81.2819 50.4993C81.1817 50.5409 81.0743 50.5623 80.9658 50.5623C80.7471 50.5609 80.5378 50.4732 80.3836 50.3183C80.2295 50.1635 80.143 49.954 80.143 49.7357V34.0526C80.1444 33.8352 80.2315 33.6271 80.3855 33.4734C80.5395 33.3197 80.748 33.2327 80.9658 33.2313ZM77.7489 32.5372C77.9667 32.5386 78.1751 32.6256 78.3291 32.7793C78.4832 32.933 78.5703 33.1411 78.5717 33.3585V49.0576C78.5717 49.2759 78.4852 49.4853 78.331 49.6401C78.1769 49.795 77.9676 49.8827 77.7489 49.8841C77.5292 49.8841 77.3186 49.797 77.1633 49.642C77.008 49.487 76.9208 49.2768 76.9208 49.0576V33.3744C76.9222 33.1561 77.01 32.9472 77.1652 32.7933C77.3203 32.6395 77.5302 32.5531 77.7489 32.5531V32.5372ZM74.5267 31.859C74.6352 31.859 74.7426 31.8804 74.8428 31.922C74.9429 31.9636 75.0339 32.0246 75.1104 32.1014C75.1868 32.1783 75.2473 32.2694 75.2884 32.3697C75.3294 32.4699 75.3502 32.5773 75.3495 32.6856V48.3688C75.3495 48.4766 75.3282 48.5834 75.2868 48.683C75.2455 48.7827 75.1849 48.8732 75.1085 48.9495C75.0321 49.0257 74.9414 49.0862 74.8415 49.1275C74.7417 49.1688 74.6347 49.19 74.5267 49.19C74.3089 49.1886 74.1004 49.1017 73.9464 48.9479C73.7924 48.7942 73.7052 48.5861 73.7038 48.3688V32.6856C73.7038 32.4673 73.7904 32.2578 73.9445 32.103C74.0987 31.9481 74.308 31.8604 74.5267 31.859ZM71.3097 30.7146C71.5285 30.716 71.7377 30.8037 71.8919 30.9585C72.046 31.1134 72.1326 31.3228 72.1326 31.5411V47.2243C72.1312 47.4417 72.044 47.6498 71.89 47.8035C71.736 47.9572 71.5275 48.0442 71.3097 48.0456C71.091 48.0456 70.8812 47.9592 70.7261 47.8053C70.5709 47.6515 70.483 47.4426 70.4816 47.2243V31.5411C70.4816 31.3219 70.5689 31.1117 70.7242 30.9567C70.8795 30.8017 71.0901 30.7146 71.3097 30.7146ZM68.0822 28.9661C68.3 28.9675 68.5085 29.0545 68.6625 29.2082C68.8165 29.3619 68.9036 29.57 68.905 29.7874V45.4706C68.905 45.6889 68.8185 45.8983 68.6644 46.0531C68.5102 46.208 68.3009 46.2957 68.0822 46.2971C67.9737 46.2971 67.8663 46.2757 67.7661 46.2341C67.6659 46.1925 67.575 46.1315 67.4985 46.0547C67.4221 45.9779 67.3616 45.8867 67.3205 45.7865C67.2795 45.6862 67.2587 45.5788 67.2594 45.4706V29.7874C67.2594 29.5696 67.3461 29.3607 67.5004 29.2066C67.6547 29.0526 67.864 28.9661 68.0822 28.9661ZM64.86 27.0481C65.0787 27.0467 65.2891 27.1317 65.4453 27.2846C65.6014 27.4374 65.6906 27.6458 65.6934 27.8641V43.5472C65.692 43.7655 65.6042 43.9744 65.449 44.1283C65.2939 44.2821 65.084 44.3685 64.8653 44.3685C64.6475 44.3671 64.4391 44.2801 64.2851 44.1264C64.1311 43.9727 64.0439 43.7646 64.0425 43.5472V27.8641C64.0453 27.6476 64.133 27.4409 64.2869 27.2883C64.4408 27.1357 64.6484 27.0495 64.8653 27.0481H64.86Z" fill="#FFB700"/>
<path fill-rule="evenodd" clip-rule="evenodd" d="M62.104 23.917C62.2125 23.917 62.32 23.9384 62.4202 23.98C62.5203 24.0216 62.6113 24.0826 62.6878 24.1594C62.7642 24.2362 62.8247 24.3274 62.8658 24.4276C62.9068 24.5279 62.9276 24.6352 62.9269 24.7435V40.4267C62.9269 40.5346 62.9056 40.6414 62.8642 40.741C62.8229 40.8406 62.7623 40.9312 62.6859 41.0074C62.6095 41.0837 62.5188 41.1442 62.4189 41.1855C62.3191 41.2267 62.2121 41.248 62.104 41.248C61.8863 41.2466 61.6778 41.1596 61.5238 41.0059C61.3698 40.8522 61.2826 40.6441 61.2813 40.4267V24.7435C61.2812 24.5252 61.3678 24.3158 61.5219 24.1609C61.6761 24.0061 61.8853 23.9184 62.104 23.917ZM116.845 24.3197C117.063 24.3211 117.272 24.4088 117.427 24.5636C117.581 24.7185 117.667 24.9279 117.667 25.1462V40.8294C117.666 41.0468 117.579 41.2549 117.425 41.4086C117.271 41.5623 117.062 41.6493 116.845 41.6507C116.626 41.6507 116.416 41.5643 116.261 41.4104C116.106 41.2566 116.018 41.0477 116.016 40.8294V25.1462C116.016 24.927 116.104 24.7168 116.259 24.5618C116.414 24.4067 116.625 24.3197 116.845 24.3197ZM113.622 27.2974C113.73 27.2974 113.837 27.3186 113.937 27.3599C114.037 27.4011 114.128 27.4616 114.204 27.5379C114.281 27.6142 114.341 27.7047 114.382 27.8043C114.424 27.904 114.445 28.0108 114.445 28.1186V43.8018C114.446 43.9101 114.425 44.0174 114.384 44.1177C114.343 44.2179 114.282 44.3091 114.206 44.3859C114.13 44.4627 114.039 44.5237 113.938 44.5653C113.838 44.6069 113.731 44.6283 113.622 44.6283C113.514 44.6283 113.406 44.6069 113.306 44.5653C113.206 44.5237 113.115 44.4627 113.039 44.3859C112.962 44.3091 112.902 44.2179 112.861 44.1177C112.82 44.0174 112.799 43.9101 112.799 43.8018V28.1186C112.799 27.9008 112.886 27.6919 113.04 27.5379C113.195 27.3839 113.404 27.2974 113.622 27.2974ZM110.405 29.581C110.623 29.5823 110.832 29.6693 110.986 29.823C111.14 29.9767 111.227 30.1848 111.228 30.4022V46.0854C111.228 46.3032 111.142 46.5121 110.987 46.6661C110.833 46.8201 110.624 46.9066 110.405 46.9066C110.297 46.9073 110.189 46.8866 110.089 46.8456C109.988 46.8047 109.897 46.7443 109.82 46.668C109.743 46.5916 109.682 46.5009 109.64 46.4009C109.599 46.3009 109.577 46.1937 109.577 46.0854V30.4022C109.579 30.1839 109.667 29.975 109.822 29.8212C109.977 29.6673 110.187 29.5809 110.405 29.581ZM107.183 31.0857C107.401 31.0871 107.609 31.174 107.763 31.3278C107.917 31.4815 108.005 31.6896 108.006 31.9069V47.5901C108.005 47.8075 107.917 48.0156 107.763 48.1693C107.609 48.323 107.401 48.41 107.183 48.4114C106.965 48.4114 106.756 48.3249 106.601 48.1708C106.447 48.0168 106.36 47.8079 106.36 47.5901V31.9069C106.36 31.6891 106.447 31.4802 106.601 31.3262C106.756 31.1722 106.965 31.0857 107.183 31.0857ZM103.961 32.3308C104.069 32.3301 104.177 32.3508 104.277 32.3918C104.378 32.4328 104.469 32.4931 104.546 32.5695C104.623 32.6458 104.684 32.7366 104.726 32.8365C104.768 32.9365 104.789 33.0438 104.789 33.1521V48.8352C104.789 48.9435 104.768 49.0508 104.726 49.1508C104.684 49.2507 104.623 49.3415 104.546 49.4178C104.469 49.4942 104.378 49.5545 104.277 49.5955C104.177 49.6365 104.069 49.6572 103.961 49.6565C103.743 49.6565 103.533 49.57 103.379 49.416C103.225 49.2619 103.138 49.0531 103.138 48.8352V33.1627C103.138 32.9448 103.225 32.736 103.379 32.5819C103.533 32.4279 103.743 32.3414 103.961 32.3414V32.3308ZM100.744 33.2951C100.962 33.2965 101.17 33.3835 101.324 33.5372C101.478 33.6909 101.565 33.899 101.567 34.1164V49.7995C101.567 49.9074 101.546 50.0142 101.504 50.1138C101.463 50.2135 101.402 50.304 101.326 50.3803C101.249 50.4565 101.159 50.517 101.059 50.5583C100.959 50.5996 100.852 50.6208 100.744 50.6208C100.528 50.618 100.321 50.5303 100.169 50.3765C100.017 50.2228 99.9319 50.0155 99.9319 49.7995V34.1164C99.9333 33.8981 100.021 33.6892 100.176 33.5353C100.331 33.3815 100.541 33.2951 100.76 33.2951H100.744ZM97.5218 33.825C97.7415 33.825 97.9521 33.912 98.1074 34.067C98.2627 34.222 98.35 34.4323 98.35 34.6515V50.3347C98.3486 50.553 98.2607 50.7619 98.1056 50.9157C97.9504 51.0696 97.7406 51.1559 97.5218 51.1559C97.3041 51.1545 97.0956 51.0676 96.9416 50.9139C96.7876 50.7601 96.7004 50.5521 96.6991 50.3347V34.6515C96.699 34.4332 96.7856 34.2238 96.9397 34.0689C97.0939 33.914 97.3031 33.8264 97.5218 33.825ZM94.3049 34.0952C94.5227 34.0966 94.7312 34.1835 94.8852 34.3372C95.0392 34.491 95.1264 34.699 95.1278 34.9164V50.5996C95.1278 50.7075 95.1065 50.8142 95.0651 50.9139C95.0238 51.0135 94.9632 51.1041 94.8868 51.1803C94.8103 51.2566 94.7197 51.3171 94.6198 51.3583C94.52 51.3996 94.413 51.4209 94.3049 51.4209C94.1964 51.4216 94.0889 51.4008 93.9884 51.3599C93.888 51.3189 93.7967 51.2585 93.7197 51.1822C93.6427 51.1059 93.5816 51.0151 93.54 50.9151C93.4983 50.8151 93.4768 50.7079 93.4768 50.5996V34.9164C93.4782 34.6981 93.5661 34.4892 93.7213 34.3354C93.8764 34.1815 94.0862 34.0952 94.3049 34.0952ZM91.0827 34.127C91.1908 34.127 91.2978 34.1482 91.3976 34.1895C91.4974 34.2307 91.5881 34.2912 91.6646 34.3675C91.741 34.4438 91.8016 34.5343 91.8429 34.6339C91.8843 34.7336 91.9055 34.8404 91.9055 34.9482V50.6473C91.9062 50.7556 91.8855 50.8629 91.8444 50.9632C91.8034 51.0634 91.7429 51.1546 91.6664 51.2314C91.59 51.3083 91.499 51.3692 91.3988 51.4108C91.2987 51.4524 91.1912 51.4738 91.0827 51.4738C90.864 51.4724 90.6548 51.3847 90.5006 51.2299C90.3464 51.075 90.2599 50.8656 90.2599 50.6473V34.9641C90.2613 34.7467 90.3485 34.5386 90.5025 34.3849C90.6565 34.2312 90.8649 34.1442 91.0827 34.1429V34.127ZM87.8658 34.1587C88.084 34.1587 88.2933 34.2453 88.4476 34.3993C88.602 34.5533 88.6886 34.7622 88.6886 34.98V50.6473C88.6872 50.8647 88.6001 51.0728 88.4461 51.2265C88.2921 51.3802 88.0836 51.4671 87.8658 51.4685C87.6471 51.4685 87.4373 51.3822 87.2821 51.2283C87.127 51.0745 87.0391 50.8656 87.0377 50.6473V34.9641C87.0377 34.8558 87.0592 34.7486 87.1009 34.6486C87.1425 34.5486 87.2036 34.4578 87.2806 34.3815C87.3576 34.3052 87.4489 34.2448 87.5493 34.2038C87.6498 34.1629 87.7573 34.1422 87.8658 34.1429V34.1587ZM84.6436 33.968C84.8618 33.968 85.0711 34.0545 85.2254 34.2085C85.3797 34.3626 85.4664 34.5714 85.4664 34.7893V50.4724C85.4671 50.5807 85.4464 50.6881 85.4053 50.7884C85.3643 50.8886 85.3038 50.9798 85.2273 51.0566C85.1508 51.1334 85.0599 51.1944 84.9597 51.236C84.8595 51.2776 84.7521 51.299 84.6436 51.299C84.5351 51.299 84.4277 51.2776 84.3275 51.236C84.2273 51.1944 84.1364 51.1334 84.0599 51.0566C83.9834 50.9798 83.923 50.8886 83.8819 50.7884C83.8409 50.6881 83.8201 50.5807 83.8208 50.4724V34.7893C83.8208 34.5714 83.9075 34.3626 84.0618 34.2085C84.2161 34.0545 84.4254 33.968 84.6436 33.968ZM81.4214 33.4382C81.6401 33.4382 81.8499 33.5245 82.0051 33.6784C82.1602 33.8322 82.2481 34.0411 82.2495 34.2594V49.9426C82.2495 50.1618 82.1623 50.3721 82.007 50.5271C81.8517 50.6821 81.641 50.7691 81.4214 50.7691C81.2027 50.7677 80.9934 50.68 80.8393 50.5252C80.6851 50.3703 80.5986 50.1609 80.5986 49.9426V34.2594C80.6 34.042 80.6871 33.834 80.8411 33.6802C80.9951 33.5265 81.2036 33.4396 81.4214 33.4382ZM78.2045 32.7441C78.4223 32.7455 78.6308 32.8324 78.7848 32.9862C78.9388 33.1399 79.0259 33.348 79.0273 33.5653V49.2485C79.0273 49.4668 78.9408 49.6763 78.7866 49.8311C78.6325 49.986 78.4232 50.0737 78.2045 50.0751C78.096 50.0751 77.9886 50.0537 77.8884 50.0121C77.7882 49.9704 77.6973 49.9095 77.6208 49.8327C77.5443 49.7558 77.4838 49.6647 77.4428 49.5644C77.4018 49.4642 77.381 49.3568 77.3817 49.2485V33.5653C77.3817 33.4575 77.403 33.3507 77.4443 33.2511C77.4857 33.1514 77.5463 33.0609 77.6227 32.9846C77.6991 32.9084 77.7898 32.8479 77.8896 32.8066C77.9895 32.7653 78.0965 32.7441 78.2045 32.7441ZM74.9823 32.0553C75.201 32.0553 75.4108 32.1416 75.566 32.2955C75.7211 32.4494 75.809 32.6582 75.8104 32.8765V48.5597C75.8104 48.7789 75.7232 48.9892 75.5679 49.1442C75.4126 49.2992 75.2019 49.3863 74.9823 49.3863C74.7636 49.3849 74.5543 49.2972 74.4002 49.1423C74.246 48.9875 74.1595 48.778 74.1595 48.5597V32.8765C74.1609 32.6592 74.248 32.4511 74.402 32.2974C74.556 32.1437 74.7645 32.0567 74.9823 32.0553ZM71.7654 30.9108C71.9832 30.9122 72.1916 30.9992 72.3457 31.1529C72.4997 31.3066 72.5868 31.5147 72.5882 31.7321V47.4153C72.5882 47.6336 72.5017 47.843 72.3475 47.9979C72.1934 48.1527 71.9841 48.2404 71.7654 48.2418C71.5458 48.2418 71.3351 48.1547 71.1798 47.9997C71.0245 47.8447 70.9373 47.6345 70.9373 47.4153V31.7321C70.9387 31.5138 71.0265 31.3049 71.1817 31.1511C71.3368 30.9972 71.5467 30.9108 71.7654 30.9108ZM68.5432 29.1677C68.7619 29.1677 68.9717 29.254 69.1269 29.4079C69.282 29.5618 69.3699 29.7706 69.3713 29.9889V45.6721C69.3713 45.7804 69.3498 45.8876 69.3082 45.9876C69.2665 46.0876 69.2054 46.1784 69.1284 46.2547C69.0514 46.331 68.9601 46.3914 68.8597 46.4324C68.7592 46.4733 68.6517 46.4941 68.5432 46.4934C68.3249 46.4934 68.1157 46.4068 67.9614 46.2528C67.8071 46.0988 67.7204 45.8899 67.7204 45.6721V29.9836C67.7218 29.7662 67.8089 29.5582 67.9629 29.4045C68.1169 29.2507 68.3254 29.1638 68.5432 29.1624V29.1677ZM65.3263 27.2497C65.5441 27.2511 65.7525 27.338 65.9065 27.4917C66.0605 27.6455 66.1477 27.8535 66.1491 28.0709V43.7594C66.1491 43.9777 66.0626 44.1871 65.9084 44.342C65.7542 44.4968 65.545 44.5845 65.3263 44.5859C65.1066 44.5859 64.896 44.4989 64.7407 44.3439C64.5854 44.1889 64.4982 43.9786 64.4982 43.7594V28.0762C64.4982 27.857 64.5854 27.6468 64.7407 27.4918C64.896 27.3368 65.1066 27.2497 65.3263 27.2497Z" fill="#E88F00"/>
<path fill-rule="evenodd" clip-rule="evenodd" d="M85.6471 3.0049C71.8452 3.91092 62.0884 10.9525 63.8826 18.6722C65.6769 26.3919 78.3693 31.9658 92.1871 31.0598C106.005 30.1538 115.735 23.1122 113.925 15.3872C112.115 7.66217 99.4597 2.09888 85.6471 3.0049Z" fill="#FFB700"/>
<path fill-rule="evenodd" clip-rule="evenodd" d="M85.6413 2.57035C71.8394 3.50816 62.0825 10.7404 63.8767 18.7251L63.9351 18.9582C63.5529 11.5723 72.9223 5.15066 85.8908 4.27113C99.5759 3.34921 112.136 8.94959 114.137 16.8124C114.109 16.3165 114.04 15.8238 113.93 15.3394C112.141 7.35478 99.4591 1.63784 85.6413 2.57035Z" fill="#E89207"/>
<path fill-rule="evenodd" clip-rule="evenodd" d="M86.1556 109.296C70.8673 110.26 60.0912 117.704 62.0978 125.917C64.1044 134.129 78.1186 140.016 93.4175 139.051C108.716 138.087 119.471 130.654 117.449 122.436C115.426 114.218 101.444 108.337 86.1556 109.296Z" fill="#23C0BB"/>
<path fill-rule="evenodd" clip-rule="evenodd" d="M84.9616 111.399C73.1928 112.141 64.9063 117.868 66.4458 124.189C67.9852 130.51 78.7772 135.04 90.546 134.298C102.315 133.557 110.596 127.829 109.056 121.508C107.517 115.187 96.7463 110.657 84.9616 111.399Z" fill="#96E5DF"/>
<path fill-rule="evenodd" clip-rule="evenodd" d="M77.392 116.793C78.9937 116.839 80.5624 117.258 81.9731 118.016H84.5371V122.674C84.5582 122.866 84.5582 123.059 84.5371 123.251V123.463H84.5052C84.5078 123.504 84.5078 123.545 84.5052 123.585C83.916 126.176 79.7967 128.036 75.3111 127.728C71.3934 127.464 68.4897 125.646 68.1978 123.463C68.1658 123.228 68.1658 122.989 68.1978 122.753V118.022H70.8944C72.926 117.085 75.1578 116.662 77.392 116.793Z" fill="#F2A100"/>
<path fill-rule="evenodd" clip-rule="evenodd" d="M77.3917 116.798C78.9937 116.837 80.5636 117.255 81.9729 118.016H84.5369V122.674C84.5579 122.866 84.5579 123.059 84.5369 123.251V123.463H84.505C84.505 123.5 84.505 123.543 84.505 123.585C84.4172 123.963 84.2607 124.323 84.0432 124.645C82.3657 126.43 78.9205 127.548 75.2365 127.294C72.3646 127.098 69.9971 126.118 68.7071 124.761C68.4326 124.373 68.251 123.927 68.1763 123.458C68.1444 123.222 68.1444 122.983 68.1763 122.748V118.016H70.873C72.911 117.077 75.1512 116.658 77.3917 116.798Z" fill="#FFB700"/>
<path fill-rule="evenodd" clip-rule="evenodd" d="M77.3917 113.873C81.8826 114.175 85.0464 116.522 84.4572 119.119C83.8679 121.715 79.7486 123.569 75.263 123.267C70.7774 122.965 67.6082 120.618 68.1975 118.017C68.7867 115.415 72.9007 113.566 77.3917 113.873Z" fill="#FFEAA9"/>
<path fill-rule="evenodd" clip-rule="evenodd" d="M80.9605 115.685C82.0859 116.093 82.7229 116.925 82.3778 117.545C82.0328 118.165 80.8437 118.334 79.7236 117.926C78.6035 117.518 77.9665 116.687 78.3063 116.067C78.646 115.447 79.8351 115.288 80.9605 115.685Z" fill="#FFFFCC"/>
<path fill-rule="evenodd" clip-rule="evenodd" d="M89.3457 122.668C90.3764 123.896 91.1037 125.347 91.469 126.907L93.1518 128.804L89.6642 131.887C89.5319 132.03 89.3861 132.159 89.2289 132.274L89.0696 132.412L88.9688 132.47C86.6331 133.752 82.5084 131.909 79.7587 128.353C77.3593 125.254 76.7966 121.873 78.2405 120.21C78.3968 120.031 78.5751 119.872 78.7713 119.738L82.3173 116.602L84.1063 118.615C86.1623 119.512 87.9628 120.905 89.3457 122.668Z" fill="#F2A100"/>
<path fill-rule="evenodd" clip-rule="evenodd" d="M89.3475 122.669C90.3802 123.895 91.1078 125.347 91.4708 126.907L93.1536 128.804L89.666 131.888C89.5349 132.032 89.389 132.161 89.2307 132.275L89.0714 132.412L88.9706 132.476C88.6255 132.657 88.2522 132.779 87.8664 132.836C85.4139 132.762 82.2926 130.929 80.0365 128.015C78.2741 125.737 77.446 123.32 77.6052 121.455C77.7205 120.999 77.9384 120.575 78.2422 120.216C78.3972 120.035 78.5758 119.877 78.7731 119.744L82.3191 116.607L84.108 118.621C86.1643 119.515 87.965 120.906 89.3475 122.669Z" fill="#FFB700"/>
<path fill-rule="evenodd" clip-rule="evenodd" d="M91.5379 120.729C94.2876 124.284 94.6221 128.205 92.2864 129.487C89.9506 130.77 85.826 128.921 83.0815 125.365C80.3371 121.81 79.992 117.889 82.3277 116.607C84.6634 115.325 88.7828 117.174 91.5379 120.729Z" fill="#FFEAA9"/>
<path fill-rule="evenodd" clip-rule="evenodd" d="M92.5432 124.597C92.9838 125.704 92.7821 126.716 92.0867 126.885C91.3913 127.055 90.4942 126.266 90.0376 125.158C89.5811 124.051 89.8041 123.039 90.4942 122.864C91.1843 122.689 92.1026 123.484 92.5432 124.597Z" fill="#FFFFCC"/>
<path fill-rule="evenodd" clip-rule="evenodd" d="M104.672 115.578C106.043 114.749 107.591 114.254 109.19 114.132L111.313 112.76L113.84 116.675C113.961 116.827 114.065 116.99 114.153 117.163L114.264 117.338L114.307 117.449C115.22 119.95 112.767 123.738 108.823 125.926C105.394 127.823 101.96 127.86 100.532 126.186C100.378 126.003 100.247 125.802 100.144 125.587L97.5801 121.613L99.8468 120.156C101.048 118.253 102.706 116.679 104.672 115.578Z" fill="#F2A100"/>
<path fill-rule="evenodd" clip-rule="evenodd" d="M104.677 115.578C106.045 114.746 107.592 114.251 109.19 114.132L111.313 112.76L113.84 116.67C113.958 116.823 114.063 116.986 114.153 117.157L114.264 117.338L114.307 117.449C114.438 117.816 114.503 118.203 114.498 118.593C114.052 121.004 111.759 123.802 108.531 125.582C106.01 126.975 103.488 127.426 101.668 126.986C101.232 126.798 100.844 126.516 100.532 126.159C100.378 125.977 100.247 125.776 100.144 125.561L97.5801 121.587L99.8468 120.125C101.053 118.232 102.714 116.67 104.677 115.578Z" fill="#FFB700"/>
<path fill-rule="evenodd" clip-rule="evenodd" d="M103.117 113.121C107.056 110.949 110.989 111.213 111.902 113.714C112.815 116.215 110.358 119.998 106.419 122.192C102.48 124.385 98.5463 124.094 97.6332 121.598C96.7202 119.103 99.1514 115.288 103.117 113.121Z" fill="#FFEAA9"/>
<path fill-rule="evenodd" clip-rule="evenodd" d="M107.073 112.719C108.24 112.454 109.228 112.809 109.276 113.519C109.323 114.229 108.416 115.007 107.248 115.272C106.08 115.537 105.093 115.182 105.045 114.472C104.997 113.762 105.905 112.983 107.073 112.719Z" fill="#FFFFCC"/>
<path opacity="0.49" fill-rule="evenodd" clip-rule="evenodd" d="M111.738 57.26V123.145C111.738 129.016 101.174 135.798 101.174 128.364V59.3105C101.174 55.4162 111.738 51.1245 111.738 57.26Z" fill="white"/>
<path fill-rule="evenodd" clip-rule="evenodd" d="M101.042 57.4825C100.511 59.7873 102.518 61.6523 105.469 61.6417C108.421 61.6311 111.229 59.7555 111.739 57.4454C112.248 55.1353 110.263 53.2756 107.306 53.2862C104.349 53.2968 101.552 55.1724 101.042 57.4825Z" fill="white"/>
<path fill-rule="evenodd" clip-rule="evenodd" d="M118.453 63.0781H118.638L118.41 102.445C118.288 123.368 61.0791 123.639 61.0791 102.445C61.0791 102.344 60.803 67.2056 60.7871 63.1682C64.0889 71.6456 78.1138 77.5533 93.3331 76.5254C106.27 75.6512 116.127 70.0561 118.453 63.0781Z" fill="#666666"/>
<path fill-rule="evenodd" clip-rule="evenodd" d="M118.452 63.0781H118.637L118.415 101.407C115.049 119.919 64.4225 120.173 61.0835 101.481C61.0411 95.8062 60.8128 66.8135 60.7969 63.1682C64.0987 71.6456 78.1236 77.5533 93.3428 76.5254C106.269 75.6512 116.127 70.0561 118.452 63.0781Z" fill="white"/>
<path fill-rule="evenodd" clip-rule="evenodd" d="M118.548 79.0784C113.442 96.4199 65.7773 96.6107 60.9254 79.036C60.867 71.5706 60.8139 64.8045 60.8086 63.1409C64.1104 71.6183 78.1353 77.5259 93.3545 76.4981C106.27 75.6238 116.128 70.0287 118.453 63.0508H118.639L118.548 79.0784Z" fill="#6666FF"/>
<path fill-rule="evenodd" clip-rule="evenodd" d="M76.3517 77.5471V145.621C76.3517 145.818 76.3517 146.014 76.3517 146.209V146.887H76.2986C75.4917 153.775 66.3559 159.545 54.0032 160.382C39.9465 161.33 27.0576 155.518 25.2103 147.396C25.1714 147.226 25.1395 147.049 25.1147 146.866H24.998V145.674C24.998 145.483 24.998 145.297 24.998 145.112V77.012C24.5043 57.7524 72.0306 57.2226 76.1234 75.29C76.2956 76.0296 76.3723 76.7881 76.3517 77.5471Z" fill="#5C1C07"/>
<path fill-rule="evenodd" clip-rule="evenodd" d="M73.9688 81.5633V141.562C73.9688 141.742 73.9688 141.917 73.9688 142.092V142.707H73.921C73.1884 148.959 64.8967 154.188 53.7118 154.946C40.9716 155.809 29.2612 150.532 27.5944 143.168C27.5572 143.014 27.5307 142.86 27.5041 142.707H27.398V141.647C27.398 141.47 27.398 141.294 27.398 141.117V81.0759C26.9521 63.5912 70.0618 63.125 73.7777 79.4864C73.9321 80.1673 73.9964 80.8656 73.9688 81.5633Z" fill="#CA4E02"/>
<path fill-rule="evenodd" clip-rule="evenodd" d="M69.8696 81.5633V141.562C69.8696 141.742 69.8696 141.917 69.8696 142.092V142.707H69.8271C69.2273 148.959 62.3953 154.188 53.1799 154.946C42.6692 155.809 33.0079 150.532 31.6596 143.168C31.6277 143.014 31.6065 142.86 31.5852 142.707H31.495V141.647C31.495 141.472 31.495 141.302 31.495 141.117V81.0759C31.1287 63.5912 66.6474 63.125 69.7156 79.4864C69.842 80.1711 69.8936 80.8675 69.8696 81.5633Z" fill="#EDA564"/>
<path fill-rule="evenodd" clip-rule="evenodd" d="M35.4922 69.1914H65.8776V72.8102C66.1536 77.2767 60.4949 81.1657 52.6649 81.6956C44.3466 82.2572 36.7397 78.8186 35.6249 74.0129C35.5253 73.5877 35.4825 73.1512 35.4975 72.7148L35.4922 69.1914Z" fill="#892604"/>
<path fill-rule="evenodd" clip-rule="evenodd" d="M48.4032 58.8492C38.7737 59.5009 31.9895 64.5396 33.2529 70.0976C34.5163 75.6556 43.3389 79.6347 52.9684 78.9883C62.5979 78.3419 69.3768 73.3031 68.1187 67.7399C66.8606 62.1766 58.0273 58.1975 48.4032 58.8492Z" fill="#CA4E02"/>
<path fill-rule="evenodd" clip-rule="evenodd" d="M48.2439 51.5273C38.2747 52.5075 31.257 57.9596 32.5575 63.7136C33.8581 69.4676 43.0045 73.3195 52.9737 72.3393C62.9429 71.3591 69.9607 65.9071 68.6548 60.1531C67.3489 54.3991 58.2078 50.5471 48.2439 51.5273Z" fill="#CA4E02"/>
<path fill-rule="evenodd" clip-rule="evenodd" d="M68.0827 56.3746V66.5898C68.4012 71.7081 61.9143 76.1746 52.9324 76.7786C43.3772 77.425 34.6449 73.4777 33.3921 67.9674C33.2819 67.4809 33.2337 66.9824 33.2488 66.4839V56.0938C34.9953 61.3921 43.6108 65.101 52.9749 64.4705C60.7677 63.9459 66.7025 60.5762 68.0827 56.3746Z" fill="#B13305"/>
<path fill-rule="evenodd" clip-rule="evenodd" d="M68.08 60.084V62.304C67.6181 69.992 42.1005 77.7117 33.2461 65.7797V62.3676C36.9301 73.473 64.311 71.4331 68.08 60.084Z" fill="#CA4E02"/>
<path fill-rule="evenodd" clip-rule="evenodd" d="M68.8085 61.1484V63.432C68.352 71.0299 44.3898 78.6543 34.0862 68.7834C33.6012 68.3371 33.2151 67.7945 32.9528 67.1904C32.6904 66.5864 32.5575 65.9342 32.5626 65.2759V63.5009C36.3741 75.0779 64.8962 72.9532 68.8085 61.1484Z" fill="#892604"/>
<path fill-rule="evenodd" clip-rule="evenodd" d="M48.3809 44.1524C38.6665 44.8094 31.8239 49.8906 33.0979 55.5015C34.372 61.1125 43.2795 65.1287 52.9886 64.4717C62.6977 63.8147 69.5403 58.7335 68.2662 53.1226C66.9922 47.5116 58.09 43.4954 48.3809 44.1524Z" fill="#5C1C07"/>
<path fill-rule="evenodd" clip-rule="evenodd" d="M48.8597 46.2497C41.1519 46.7796 35.7213 50.801 36.7299 55.257C37.7385 59.7129 44.8094 62.8972 52.5119 62.378C60.2144 61.8588 65.6449 57.8214 64.6363 53.3708C63.6277 48.9201 56.5622 45.7252 48.8597 46.2497Z" fill="#CA4E02"/>
<path fill-rule="evenodd" clip-rule="evenodd" d="M47.9573 133.699C36.4539 134.478 28.3427 140.497 29.8503 147.141C31.3578 153.785 41.911 158.548 53.4144 157.769C64.9177 156.99 73.0237 150.971 71.5161 144.322C70.0085 137.673 59.4606 132.92 47.9573 133.699Z" fill="#5C1C07"/>
<path fill-rule="evenodd" clip-rule="evenodd" d="M44.984 135.215C35.3492 135.85 28.5597 140.773 29.8231 146.198C31.0866 151.624 39.9092 155.523 49.5546 154.887C59.2 154.252 65.9576 149.329 64.7154 143.899C63.4733 138.468 54.6188 134.579 44.984 135.215Z" fill="#CA4E02"/>
<path opacity="0.49" fill-rule="evenodd" clip-rule="evenodd" d="M71.4455 85.2458V139.39C71.4455 146.347 58.9336 154.379 58.9336 145.568V87.6725C58.9336 83.0576 71.4455 77.9764 71.4455 85.2458Z" fill="white"/>
<path fill-rule="evenodd" clip-rule="evenodd" d="M58.7772 85.5051C58.1773 88.239 60.5237 90.4485 64.0219 90.4379C67.5202 90.4273 70.8432 88.2019 71.4537 85.468C72.0642 82.734 69.7019 80.5246 66.209 80.5352C62.716 80.5458 59.3823 82.7711 58.7772 85.5051Z" fill="white"/>
<path fill-rule="evenodd" clip-rule="evenodd" d="M38.4967 52.0893C38.2419 53.3291 39.2399 53.9861 40.7316 53.5675C42.2233 53.1489 43.6353 51.8032 43.9166 50.5686C44.198 49.3341 43.1681 48.6718 41.6818 49.0904C40.1954 49.509 38.7515 50.8547 38.4967 52.0893Z" fill="white"/>
<path fill-rule="evenodd" clip-rule="evenodd" d="M82.4151 142.262L106.144 155.64C107.875 156.622 109.147 158.249 109.681 160.164C110.215 162.079 109.968 164.127 108.994 165.861C108.009 167.588 106.38 168.856 104.462 169.389C102.543 169.922 100.492 169.677 98.7544 168.706L75.0204 155.328C73.2898 154.345 72.0192 152.718 71.4861 150.803C70.953 148.888 71.2007 146.84 72.1751 145.107C73.1592 143.379 74.7885 142.11 76.7071 141.576C78.6258 141.043 80.6779 141.29 82.4151 142.262Z" fill="#E88F00"/>
<path fill-rule="evenodd" clip-rule="evenodd" d="M82.415 142.261L106.144 155.64C107.585 156.449 108.716 157.715 109.355 159.237C109.424 160.639 109.093 162.032 108.4 163.253C107.415 164.981 105.785 166.249 103.867 166.781C101.948 167.313 99.8964 167.066 98.1598 166.093L74.4311 152.715C72.9902 151.902 71.8606 150.635 71.2196 149.112C71.1519 147.712 71.4832 146.321 72.1751 145.101C73.16 143.374 74.7897 142.106 76.7083 141.573C78.6269 141.041 80.6784 141.289 82.415 142.261Z" fill="#FFB700"/>
<path fill-rule="evenodd" clip-rule="evenodd" d="M94.3305 148.985L106.131 155.64C107.863 156.622 109.134 158.249 109.669 160.164C110.203 162.079 109.956 164.127 108.982 165.861C107.997 167.588 106.367 168.856 104.449 169.389C102.531 169.922 100.479 169.677 98.7418 168.706L86.9412 162.051C86.2093 160.735 85.8274 159.253 85.8321 157.748C85.8367 156.243 86.2277 154.764 86.9677 153.452C87.7109 152.142 88.7777 151.044 90.0665 150.262C91.3554 149.48 92.8233 149.041 94.3305 148.985Z" fill="#901E78"/>
<path fill-rule="evenodd" clip-rule="evenodd" d="M94.3321 148.985L106.133 155.64C107.575 156.449 108.705 157.715 109.344 159.238C109.413 160.64 109.082 162.032 108.389 163.254C107.404 164.981 105.774 166.249 103.856 166.781C101.937 167.314 99.8854 167.066 98.1489 166.094L85.9395 159.206C85.6002 157.222 85.9564 155.183 86.9481 153.431C87.6957 152.122 88.767 151.026 90.0597 150.248C91.3524 149.469 92.8233 149.035 94.3321 148.985Z" fill="#E6007E"/>
<path opacity="0.49" fill-rule="evenodd" clip-rule="evenodd" d="M78.9112 143.592L101.87 156.615C105.114 158.453 102.767 162.443 99.5875 160.647L76.6285 147.608C73.9637 146.119 76.2516 142.087 78.9112 143.592Z" fill="white"/>
<path fill-rule="evenodd" clip-rule="evenodd" d="M86.5692 159.37L62.8405 172.748C61.1094 173.729 59.8377 175.355 59.3036 177.269C58.7694 179.183 59.0162 181.23 59.9899 182.964C60.9748 184.691 62.6045 185.959 64.5231 186.491C66.4417 187.023 68.4933 186.776 70.2298 185.804L93.9638 172.425C95.6944 171.442 96.965 169.815 97.4981 167.9C98.0312 165.986 97.7835 163.938 96.8091 162.205C95.8233 160.478 94.1932 159.211 92.2747 158.68C90.3562 158.149 88.3051 158.397 86.5692 159.37Z" fill="#E88F00"/>
<path fill-rule="evenodd" clip-rule="evenodd" d="M86.5702 159.371L62.8416 172.749C61.3997 173.558 60.2695 174.824 59.6299 176.347C59.5613 177.749 59.8927 179.141 60.5855 180.363C61.5695 182.091 63.1988 183.36 65.1175 183.893C67.0361 184.427 69.0882 184.18 70.8254 183.208L94.5541 169.83C95.994 169.016 97.1233 167.749 97.7657 166.227C97.8343 164.825 97.503 163.432 96.8102 162.21C95.8252 160.483 94.1955 159.215 92.2769 158.683C90.3584 158.151 88.3068 158.398 86.5702 159.371Z" fill="#FFB700"/>
<path fill-rule="evenodd" clip-rule="evenodd" d="M74.6411 166.094L62.8405 172.749C61.1094 173.73 59.8377 175.355 59.3036 177.269C58.7694 179.183 59.0162 181.231 59.9899 182.964C60.9748 184.691 62.6045 185.959 64.5231 186.491C66.4417 187.024 68.4933 186.776 70.2298 185.804L82.0305 179.149C82.7664 177.835 83.1529 176.355 83.1529 174.849C83.1529 173.344 82.7664 171.864 82.0305 170.55C81.2837 169.238 80.2121 168.139 78.9184 167.359C77.6246 166.579 76.1519 166.143 74.6411 166.094Z" fill="#901E78"/>
<path fill-rule="evenodd" clip-rule="evenodd" d="M74.6422 166.094L62.8416 172.749C61.3997 173.558 60.2695 174.824 59.6299 176.346C59.5613 177.748 59.8927 179.141 60.5855 180.362C61.5695 182.091 63.1988 183.36 65.1175 183.893C67.0361 184.426 69.0882 184.18 70.8254 183.207L83.0348 176.32C83.3741 174.334 83.0179 172.293 82.0262 170.539C81.2785 169.23 80.2073 168.134 78.9146 167.356C77.6219 166.578 76.151 166.143 74.6422 166.094Z" fill="#E6007E"/>
<path opacity="0.49" fill-rule="evenodd" clip-rule="evenodd" d="M90.0626 160.7L67.1089 173.697C63.8655 175.53 66.2065 179.525 69.3862 177.729L92.3452 164.732C95.01 163.222 92.7221 159.195 90.0626 160.7Z" fill="white"/>
<path fill-rule="evenodd" clip-rule="evenodd" d="M13.9834 140.821L31.6233 161.558C32.915 163.079 33.5493 165.049 33.3871 167.035C33.2248 169.022 32.2793 170.864 30.758 172.155C29.2368 173.437 27.2688 174.066 25.2843 173.905C23.2998 173.743 21.4602 172.803 20.1677 171.292L2.52782 150.554C1.24308 149.035 0.612892 147.071 0.775036 145.09C0.937179 143.11 1.87847 141.273 3.3931 139.983C4.9121 138.701 6.87739 138.069 8.86094 138.226C10.8445 138.382 12.6856 139.315 13.9834 140.821Z" fill="#E88F00"/>
<path fill-rule="evenodd" clip-rule="evenodd" d="M13.9835 140.82L31.6234 161.558C32.6969 162.816 33.319 164.395 33.3911 166.046C32.9721 167.386 32.1784 168.579 31.1031 169.485C29.5804 170.775 27.6065 171.409 25.6155 171.247C23.6245 171.085 21.7795 170.141 20.4863 168.621L2.84638 147.883C1.77477 146.625 1.15454 145.046 1.08398 143.395C1.50287 142.058 2.2946 140.867 3.36661 139.962C4.88978 138.674 6.86263 138.04 8.85275 138.201C10.8429 138.362 12.6879 139.304 13.9835 140.82Z" fill="#FFB700"/>
<path fill-rule="evenodd" clip-rule="evenodd" d="M22.8485 151.248L31.6233 161.559C32.915 163.079 33.5493 165.049 33.3871 167.036C33.2249 169.023 32.2793 170.864 30.758 172.156C29.2368 173.438 27.2688 174.067 25.2843 173.905C23.2998 173.743 21.4602 172.804 20.1677 171.292L11.3929 160.96C11.1648 159.474 11.3211 157.953 11.847 156.544C12.3728 155.134 13.2507 153.882 14.3975 152.907C15.547 151.933 16.9272 151.269 18.4066 150.979C19.886 150.689 21.4152 150.781 22.8485 151.248Z" fill="#901E78"/>
<path fill-rule="evenodd" clip-rule="evenodd" d="M22.8476 151.248L31.6224 161.558C32.6959 162.816 33.318 164.395 33.3901 166.046C32.9712 167.386 32.1774 168.579 31.1021 169.485C29.5795 170.775 27.6055 171.409 25.6145 171.247C23.6235 171.085 21.7785 170.141 20.4853 168.621L11.4238 157.971C11.7913 155.991 12.8319 154.199 14.37 152.896C15.5233 151.919 16.9086 151.255 18.3931 150.966C19.8776 150.678 21.4114 150.775 22.8476 151.248Z" fill="#E6007E"/>
<path opacity="0.49" fill-rule="evenodd" clip-rule="evenodd" d="M10.2471 140.869L27.2925 161.003C29.7025 163.843 26.1193 166.789 23.757 163.996L6.71169 143.889C4.73165 141.531 8.27237 138.538 10.2471 140.869Z" fill="white"/>
</g>
</g>
<defs>
<clipPath id="clip0_1294_5147">
<rect width="129" height="186.773" fill="white" transform="translate(0.75)"/>
</clipPath>
</defs>
</svg>
