<svg width="15" height="14" viewBox="0 0 15 14" fill="none" xmlns="http://www.w3.org/2000/svg">
<path d="M12.7784 1.58164C14.4107 3.21393 14.4107 5.86057 12.7784 7.49286L7.85293 12.419C6.21994 14.0513 3.5733 14.0513 1.94101 12.419C0.308724 10.7867 0.308724 8.14006 1.94101 6.50777L6.86645 1.58164C8.49944 -0.0506507 11.1461 -0.0506507 12.7784 1.58164ZM8.83802 9.46303L4.89697 5.52199L2.9261 7.49355C1.83791 8.58105 1.83791 10.3457 2.9261 11.4339C4.01429 12.5221 5.77895 12.5221 6.86715 11.4339L8.83802 9.46303ZM11.7933 2.56673C10.7051 1.47853 8.94043 1.47853 7.85223 2.56673L5.88276 4.5369L9.8238 8.47794L11.794 6.50777C12.8822 5.41958 12.8815 3.65492 11.7933 2.56673Z" fill="#242424"/>
<path d="M11.7933 2.56673C10.7051 1.47853 8.94043 1.47853 7.85223 2.56673L5.88276 4.5369L9.8238 8.47794L11.794 6.50777C12.8822 5.41958 12.8815 3.65492 11.7933 2.56673Z" fill="white"/>
<path d="M8.83802 9.46303L4.89697 5.52199L2.9261 7.49355C1.83791 8.58105 1.83791 10.3457 2.9261 11.4339C4.01429 12.5221 5.77895 12.5221 6.86715 11.4339L8.83802 9.46303Z" fill="#65C2F1"/>
</svg>
